<svg width="226" height="226" viewBox="0 0 226 226" fill="none" xmlns="http://www.w3.org/2000/svg">
<path d="M117.303 66.2379H108.703V147.937H117.303V66.2379Z" fill="#5CB0FF"/>
<path d="M113.004 182.337C115.378 182.337 117.304 180.412 117.304 178.037C117.304 175.662 115.378 173.737 113.004 173.737C110.629 173.737 108.703 175.662 108.703 178.037C108.703 180.412 110.629 182.337 113.004 182.337Z" fill="#5CB0FF"/>
<path d="M118.291 31.5672C116.729 29.0079 114.801 27.538 113 27.538C111.199 27.5402 109.271 29.0079 107.709 31.565V31.5672L10.1912 191.388C8.68379 193.859 8.22605 196.125 8.96496 197.444C9.69991 198.754 11.854 199.537 14.7222 199.537H211.274C214.146 199.537 216.296 198.754 217.035 197.444C217.774 196.123 217.316 193.859 215.809 191.388L118.291 31.5672ZM113 190.937C105.887 190.937 100.1 185.151 100.1 178.037C100.1 170.924 105.886 165.137 113 165.137C120.114 165.137 125.9 170.923 125.9 178.037C125.9 185.151 120.113 190.937 113 190.937ZM125.9 152.238C125.9 154.612 123.977 156.538 121.6 156.538H104.4C102.024 156.538 100.1 154.612 100.1 152.238V61.9377C100.1 59.5629 102.023 57.6375 104.4 57.6375H121.6C123.976 57.6375 125.9 59.5629 125.9 61.9377V152.238Z" fill="#D0E8FF"/>
<path d="M223.149 186.908L125.631 27.0865C122.473 21.9088 117.867 18.9381 112.996 18.9381C108.129 18.9403 103.527 21.911 100.369 27.0887V27.0865L2.85104 186.908C-0.395063 192.227 -0.886348 197.463 1.46546 201.654C3.81286 205.834 8.52002 208.137 14.7222 208.137H211.274C217.476 208.137 222.188 205.834 224.535 201.652C226.886 197.46 226.395 192.224 223.149 186.908ZM217.035 197.444C216.296 198.754 214.146 199.537 211.274 199.537H14.7222C11.854 199.537 9.6999 198.754 8.96496 197.444C8.22604 196.125 8.68378 193.859 10.1912 191.388L107.709 31.5672V31.565C109.271 29.0075 111.199 27.5402 113 27.538C114.801 27.538 116.729 29.0079 118.291 31.5672L215.809 191.388C217.317 193.86 217.774 196.123 217.035 197.444Z" fill="#204283"/>
<path d="M121.6 57.6379H104.4C102.024 57.6379 100.1 59.5634 100.1 61.9381V152.237C100.1 154.612 102.023 156.538 104.4 156.538H121.6C123.976 156.538 125.9 154.612 125.9 152.237V61.9377C125.9 59.5629 123.977 57.6379 121.6 57.6379ZM117.3 147.937H108.7V66.2379H117.3V147.937Z" fill="#204283"/>
<path d="M113 165.137C105.887 165.137 100.1 170.924 100.1 178.037C100.1 185.15 105.886 190.937 113 190.937C120.114 190.937 125.9 185.151 125.9 178.037C125.9 170.924 120.113 165.137 113 165.137ZM113 182.337C110.627 182.337 108.7 180.408 108.7 178.037C108.7 175.666 110.627 173.737 113 173.737C115.373 173.737 117.3 175.666 117.3 178.037C117.3 180.408 115.373 182.337 113 182.337Z" fill="#204283"/>
<path d="M168.9 212.437H57.1003C54.7238 212.437 52.8001 214.362 52.8001 216.737C52.8001 219.112 54.7233 221.037 57.1003 221.037H168.9C171.276 221.037 173.2 219.112 173.2 216.737C173.2 214.362 171.277 212.437 168.9 212.437Z" fill="#204283"/>
<path d="M190.953 99.5627C189.853 99.5627 188.752 99.1429 187.912 98.3034C186.233 96.6238 186.233 93.9012 187.912 92.2221L203.116 77.0197C204.793 75.341 207.517 75.341 209.196 77.0197C210.876 78.6992 210.876 81.4218 209.196 83.1009L193.993 98.3034C193.154 99.1425 192.053 99.5627 190.953 99.5627Z" fill="#FF5D5D"/>
<path d="M206.156 99.5627C205.056 99.5627 203.956 99.1429 203.116 98.3034L187.912 83.1009C186.233 81.4218 186.233 78.6992 187.912 77.0197C189.59 75.341 192.313 75.341 193.993 77.0197L209.196 92.2221C210.876 93.9012 210.876 96.6238 209.196 98.3034C208.357 99.1425 207.256 99.5627 206.156 99.5627Z" fill="#FF5D5D"/>
<path d="M29.7035 35.0631C21.4051 35.0631 14.6538 28.3118 14.6538 20.0134C14.6538 11.7149 21.4051 4.96361 29.7035 4.96361C38.002 4.96361 44.7533 11.7149 44.7533 20.0134C44.7533 28.3118 38.0024 35.0631 29.7035 35.0631ZM29.7035 13.5631C26.1467 13.5631 23.2537 16.4565 23.2537 20.0129C23.2537 23.5693 26.1471 26.4627 29.7035 26.4627C33.26 26.4627 36.1534 23.5693 36.1534 20.0129C36.1534 16.4565 33.2604 13.5631 29.7035 13.5631Z" fill="#00D4D4"/>
<path d="M56.9158 188.386C55.7757 188.386 54.6818 187.934 53.8754 187.127L41.7133 174.964C40.0338 173.285 40.0338 170.563 41.7133 168.883L53.8754 156.721C55.5527 155.043 58.2762 155.043 59.9558 156.721L72.1187 168.883C72.9252 169.69 73.3785 170.784 73.3785 171.924C73.3785 173.065 72.9252 174.158 72.1187 174.965L59.9558 187.128C59.1498 187.934 58.0555 188.386 56.9158 188.386ZM50.835 171.924L56.9154 178.005L62.9966 171.924L56.9154 165.843L50.835 171.924Z" fill="#04F0FF"/>
</svg>
